<svg width="32" height="32" viewBox="0 0 32 32" fill="none" xmlns="http://www.w3.org/2000/svg">
<path d="M16 29C18.5859 29 21.0658 27.9728 22.8943 26.1443C24.7228 24.3158 25.75 21.8359 25.75 19.25C25.75 16.5606 23.9267 14.531 21.798 12.1618C19.6627 9.786 17.2188 7.06738 16 3C16 3 6.25 12.2397 6.25 19.25C6.25 21.8359 7.27723 24.3158 9.10571 26.1443C10.9342 27.9728 13.4141 29 16 29ZM13.7997 10.5497L14.9503 11.7003C14.479 12.1715 13.1173 13.8306 11.8514 16.364L10.3986 15.636C11.7311 12.9694 13.1887 11.1624 13.7997 10.5497Z" fill="black"/>
</svg>
